<svg width="57" height="56" viewBox="0 0 57 56" fill="none" xmlns="http://www.w3.org/2000/svg">
<rect x="0.5" width="56" height="56" rx="24" fill="white"/>
<rect x="0.5" width="56" height="56" rx="24" fill="#7B61FF" fill-opacity="0.2"/>
<path d="M20.52 21.97C19.25 23.65 18.5 25.74 18.5 28C18.5 33.52 22.98 38 28.5 38C34.02 38 38.5 33.52 38.5 28C38.5 22.48 34.02 18 28.5 18" stroke="#7B61FF" stroke-width="1.5" stroke-linecap="round" stroke-linejoin="round"/>
<path d="M21.5 28C21.5 31.87 24.63 35 28.5 35C32.37 35 35.5 31.87 35.5 28C35.5 24.13 32.37 21 28.5 21" stroke="#7B61FF" stroke-width="1.5" stroke-linecap="round" stroke-linejoin="round"/>
<path d="M28.5 32C30.71 32 32.5 30.21 32.5 28C32.5 25.79 30.71 24 28.5 24" stroke="#7B61FF" stroke-width="1.5" stroke-linecap="round" stroke-linejoin="round"/>
</svg>
