<svg width="57" height="56" viewBox="0 0 57 56" fill="none" xmlns="http://www.w3.org/2000/svg">
<rect x="0.5" width="56" height="56" rx="24" fill="white"/>
<rect x="0.5" width="56" height="56" rx="24" fill="#7B61FF" fill-opacity="0.2"/>
<path d="M25.5 38H31.5C36.5 38 38.5 36 38.5 31V25C38.5 20 36.5 18 31.5 18H25.5C20.5 18 18.5 20 18.5 25V31C18.5 36 20.5 38 25.5 38Z" stroke="#7B61FF" stroke-width="1.5" stroke-linecap="round" stroke-linejoin="round"/>
<path d="M32 34.5C33.1 34.5 34 33.6 34 32.5V23.5C34 22.4 33.1 21.5 32 21.5C30.9 21.5 30 22.4 30 23.5V32.5C30 33.6 30.89 34.5 32 34.5Z" stroke="#7B61FF" stroke-width="1.5" stroke-linecap="round" stroke-linejoin="round"/>
<path d="M25 34.5C26.1 34.5 27 33.6 27 32.5V29C27 27.9 26.1 27 25 27C23.9 27 23 27.9 23 29V32.5C23 33.6 23.89 34.5 25 34.5Z" stroke="#7B61FF" stroke-width="1.5" stroke-linecap="round" stroke-linejoin="round"/>
</svg>
